<?xml version="1.0" standalone="no"?>
<!DOCTYPE svg PUBLIC "-//W3C//DTD SVG 20010904//EN"
 "http://www.w3.org/TR/2001/REC-SVG-20010904/DTD/svg10.dtd">
<svg version="1.0" xmlns="http://www.w3.org/2000/svg"
 width="260.000000pt" height="260.000000pt" viewBox="0 0 260.000000 260.000000"
 preserveAspectRatio="xMidYMid meet">
<metadata>
Created by potrace 1.14, written by Peter Selinger 2001-2017
</metadata>
<g transform="translate(0.000000,260.000000) scale(0.100000,-0.100000)"
fill="#000000" stroke="none">
<path d="M87 2570 c-32 -33 -56 -39 -53 -13 0 10 -7 19 -17 21 -15 3 -17 -7
-17 -106 0 -103 1 -110 21 -115 23 -6 17 -27 -7 -27 -17 0 -18 -33 -1 -61 9
-17 9 -23 0 -26 -10 -4 -13 -162 -13 -744 0 -659 2 -742 16 -764 14 -22 14
-26 0 -47 -21 -29 -22 -55 -2 -36 8 7 12 16 10 20 -11 18 19 16 46 -4 31 -23
37 -52 10 -54 -8 0 -22 -3 -30 -7 -8 -3 -23 -8 -32 -11 -14 -4 -18 -16 -18
-51 0 -26 5 -45 11 -45 6 0 9 -7 5 -15 -3 -8 -2 -15 3 -15 4 0 6 -11 3 -25 -3
-20 0 -25 16 -25 11 0 22 4 24 9 1 5 16 -2 32 -16 21 -18 26 -27 17 -33 -10
-6 -10 -12 -2 -29 13 -23 37 -28 43 -9 8 22 28 -3 22 -27 -4 -18 0 -27 23 -42
15 -10 34 -24 42 -31 9 -9 17 -10 26 -2 10 8 14 3 19 -23 7 -37 52 -69 66 -46
12 18 47 1 60 -30 8 -21 17 -28 38 -27 40 2 65 -12 59 -35 -3 -10 -1 -22 5
-25 5 -3 12 3 14 14 7 23 34 23 58 -1 20 -20 32 -22 41 -6 8 13 42 -15 50 -41
5 -17 25 -18 260 -19 140 -1 255 2 254 6 -6 38 1 45 39 39 20 -4 52 -7 70 -8
24 0 32 -5 32 -19 0 -24 30 -25 30 -1 1 16 1 16 14 0 12 -16 33 -18 190 -18
121 0 176 3 176 11 0 7 17 9 53 4 28 -4 177 -9 331 -11 252 -4 280 -3 297 12
18 16 19 16 19 0 0 -13 5 -16 23 -10 12 3 24 11 25 15 2 5 11 9 20 9 10 0 33
14 52 30 l35 29 3 1086 c2 1063 2 1086 -17 1080 -21 -6 -38 21 -18 28 9 3 9 9
0 25 -12 19 -8 32 9 32 4 0 8 -7 8 -15 0 -8 5 -15 10 -15 6 0 10 35 10 86 0
69 -4 91 -19 110 -11 14 -17 33 -14 44 10 37 -11 47 -104 48 l-88 2 -19 -41
c-18 -39 -40 -58 -53 -45 -4 3 1 12 11 19 9 7 19 25 20 40 3 25 1 27 -35 27
-32 0 -37 -3 -32 -17 6 -17 5 -17 -14 0 -18 16 -84 17 -1079 17 l-1059 0 -28
-30z m124 -20 c19 -11 25 -46 11 -65 -8 -11 -34 -28 -69 -47 -19 -9 -27 -8
-43 7 -11 10 -20 24 -20 31 0 16 30 33 64 36 20 2 23 5 14 16 -9 10 -8 16 3
23 18 11 17 11 40 -1z m2213 -78 c-13 -37 -27 -42 -52 -18 -11 10 -7 19 18 46
38 41 54 27 34 -28z m71 8 c14 -5 30 -20 35 -32 5 -13 17 -32 25 -43 13 -19
13 -23 -1 -43 -8 -12 -21 -22 -29 -22 -17 0 -58 56 -61 84 -1 12 -5 31 -9 44
-8 25 0 27 40 12z m-2398 -104 c-20 -29 -39 -31 -55 -5 -17 27 -4 37 39 31 28
-4 29 -6 16 -26z m2293 -206 c0 -5 -4 -10 -10 -10 -5 0 -10 5 -10 10 0 6 5 10
10 10 6 0 10 -4 10 -10z m-1220 -107 c-1 -19 -16 -31 -29 -24 -7 5 -10 14 -7
20 8 12 36 15 36 4z m-245 -13 c-3 -5 -14 -10 -23 -10 -15 0 -15 2 -2 10 20
13 33 13 25 0z m115 -6 c0 -8 -4 -12 -10 -9 -5 3 -10 10 -10 16 0 5 5 9 10 9
6 0 10 -7 10 -16z m300 6 c0 -12 -17 -12 -45 0 -17 7 -15 9 13 9 17 1 32 -3
32 -9z m-247 -7 c-7 -2 -19 -2 -25 0 -7 3 -2 5 12 5 14 0 19 -2 13 -5z m264
-70 c36 -4 50 -9 47 -18 -3 -7 0 -16 7 -21 7 -4 14 -3 16 3 3 8 15 8 40 1 20
-5 50 -7 68 -4 18 4 44 2 56 -3 13 -5 42 -14 64 -19 99 -25 130 -38 174 -71
51 -39 64 -54 82 -91 6 -14 15 -33 20 -42 5 -10 9 -27 9 -38 0 -12 12 -26 30
-35 28 -15 29 -17 14 -32 -10 -11 -14 -25 -10 -42 6 -23 27 -163 41 -271 2
-19 9 -46 14 -60 6 -14 10 -36 10 -50 0 -14 4 -77 9 -140 10 -131 5 -144 -66
-155 -20 -3 -53 -11 -72 -17 -61 -20 -475 -27 -508 -9 -10 5 -39 12 -67 16
-27 4 -68 13 -90 20 -22 7 -65 16 -95 20 -30 4 -62 14 -71 21 -9 8 -49 24 -89
35 -50 13 -79 28 -92 44 -11 14 -23 25 -28 25 -4 0 -36 27 -69 60 -48 47 -61
66 -61 90 0 16 -4 30 -10 30 -5 0 -9 15 -9 33 2 49 -16 133 -35 161 -15 23
-34 32 -60 27 -12 -3 -26 21 -20 31 8 13 42 9 47 -4 12 -36 20 14 18 116 -3
175 25 244 126 314 77 53 99 63 151 71 58 9 338 12 409 4z m453 -33 c0 -5 -4
-10 -10 -10 -5 0 -10 5 -10 10 0 6 5 10 10 10 6 0 10 -4 10 -10z m-1213 -222
c-3 -7 -5 -2 -5 12 0 14 2 19 5 13 2 -7 2 -19 0 -25z m1410 -30 c-3 -8 -6 -5
-6 6 -1 11 2 17 5 13 3 -3 4 -12 1 -19z m31 -57 c3 -8 -1 -12 -9 -9 -7 2 -15
10 -17 17 -3 8 1 12 9 9 7 -2 15 -10 17 -17z m-1438 -18 c0 -20 -3 -24 -11
-16 -7 7 -9 19 -6 27 10 24 17 19 17 -11z m-1 -76 c1 -5 -3 -5 -9 -2 -5 3 -10
16 -9 28 0 21 1 21 9 2 5 -11 9 -24 9 -28z m51 -134 c0 -5 -5 -15 -10 -23 -8
-12 -10 -11 -10 8 0 12 5 22 10 22 6 0 10 -3 10 -7z m1417 -95 c-3 -8 -6 -5
-6 6 -1 11 2 17 5 13 3 -3 4 -12 1 -19z m23 -42 c0 -20 -19 -31 -32 -18 -6 6
-7 15 -4 21 10 16 36 13 36 -3z m-973 -403 c0 -16 -6 -16 -36 1 l-24 13 30 -1
c16 0 30 -7 30 -13z m233 -73 c18 -12 2 -12 -25 0 -13 6 -15 9 -5 9 8 0 22 -4
30 -9z m440 -20 c0 -5 -12 -10 -26 -10 -14 0 -23 4 -19 10 3 6 15 10 26 10 10
0 19 -4 19 -10z m-1667 -229 c-25 -22 -27 -22 -40 -5 -11 15 -10 21 4 36 9 10
12 18 7 18 -5 0 -2 5 6 10 11 7 20 4 32 -13 17 -21 17 -23 -9 -46z m76 -53
c-12 -18 -23 -34 -24 -35 0 -1 -6 2 -13 6 -16 10 22 61 44 61 12 0 11 -7 -7
-32z m121 -77 c0 -5 9 -11 20 -14 26 -7 16 -37 -12 -37 -15 0 -18 5 -13 20 4
11 2 20 -4 20 -6 0 -11 5 -11 10 0 6 5 10 10 10 6 0 10 -4 10 -9z m1640 -102
c0 -6 -4 -7 -10 -4 -5 3 -10 11 -10 16 0 6 5 7 10 4 6 -3 10 -11 10 -16z
m-1455 -29 c14 -27 14 -30 -7 -50 l-23 -21 -22 26 c-22 24 -22 27 -7 50 22 33
40 31 59 -5z m97 -54 c-2 -10 2 -23 10 -27 10 -7 10 -11 0 -21 -9 -9 -12 -8
-12 6 0 10 -6 16 -12 13 -7 -2 -18 3 -25 12 -11 14 -13 14 -27 -4 -11 -15 -14
-16 -13 -4 4 27 31 49 57 46 18 -1 24 -7 22 -21z m1953 4 c3 -5 1 -10 -4 -10
-6 0 -11 5 -11 10 0 6 2 10 4 10 3 0 8 -4 11 -10z m-2225 -21 c0 -5 -4 -9 -10
-9 -5 0 -10 7 -10 16 0 8 5 12 10 9 6 -3 10 -10 10 -16z m341 -50 c-10 -23
-10 -23 -10 7 -1 17 2 34 7 38 11 12 14 -18 3 -45z m107 -17 c2 -7 -3 -12 -12
-12 -9 0 -16 7 -16 16 0 17 22 14 28 -4z m1644 -35 c-12 -6 -22 -17 -22 -25 0
-10 -7 -12 -26 -8 -18 5 -30 2 -38 -10 -12 -15 -15 -15 -45 0 -17 9 -29 21
-27 25 9 15 65 33 81 27 22 -8 30 -7 31 4 1 6 2 14 3 19 0 5 15 2 33 -6 31
-16 31 -17 10 -26z m-1566 -4 c-10 -10 -19 5 -10 18 6 11 8 11 12 0 2 -7 1
-15 -2 -18z m145 7 c23 -13 25 -46 2 -54 -18 -7 -63 29 -63 51 0 16 34 17 61
3z m139 -81 c0 -16 -35 -18 -56 -4 -26 17 -32 50 -11 58 11 4 66 -40 67 -54z
m939 34 c0 -5 -4 -17 -9 -28 -8 -18 -9 -17 -9 8 -1 15 4 27 9 27 6 0 10 -3 9
-7z m-172 -39 c-3 -3 -12 -4 -19 -1 -8 3 -5 6 6 6 11 1 17 -2 13 -5z"/>
</g>
</svg>
